<svg width="48" height="59" viewBox="0 0 48 59" fill="none" xmlns="http://www.w3.org/2000/svg">
<path d="M12.957 44.7107C11.3103 46.1222 10.2909 48.161 10.2909 50.4351C10.2909 54.5911 13.6628 57.963 17.8188 57.963C21.9748 57.963 25.3467 54.5911 25.3467 50.4351C25.3467 48.161 24.3273 46.0438 22.6805 44.7107C22.6805 44.6323 22.6805 44.6323 22.6805 44.5539V17.6574C22.6805 14.9912 20.4849 12.874 17.8972 12.874C15.2311 12.874 13.1139 15.0697 13.1139 17.6574" stroke="white" stroke-miterlimit="10" stroke-linecap="round" stroke-linejoin="round"/>
<path d="M17.7393 53.18C19.2551 53.18 20.4838 51.9512 20.4838 50.4355C20.4838 48.9197 19.2551 47.6909 17.7393 47.6909C16.2235 47.6909 14.9948 48.9197 14.9948 50.4355C14.9948 51.9512 16.2235 53.18 17.7393 53.18Z" fill="white"/>
<path d="M17.7407 50.0429C17.1918 50.0429 16.7213 49.5724 16.7213 49.0235V26.4398C16.7213 25.8909 17.1918 25.4204 17.7407 25.4204C18.2896 25.4204 18.7601 25.8909 18.7601 26.4398V49.0235C18.7601 49.5724 18.2896 50.0429 17.7407 50.0429Z" fill="white"/>
<path d="M10.2118 21.5005H14.211" stroke="white" stroke-miterlimit="10" stroke-linecap="round" stroke-linejoin="round"/>
<path d="M11.7793 25.4995H14.2102" stroke="white" stroke-miterlimit="10" stroke-linecap="round" stroke-linejoin="round"/>
<path d="M10.2118 29.4199H14.211" stroke="white" stroke-miterlimit="10" stroke-linecap="round" stroke-linejoin="round"/>
<path d="M11.7793 33.4194H14.2102" stroke="white" stroke-miterlimit="10" stroke-linecap="round" stroke-linejoin="round"/>
<path d="M10.2118 37.4185H14.211" stroke="white" stroke-miterlimit="10" stroke-linecap="round" stroke-linejoin="round"/>
<path d="M11.7793 41.418H14.2102" stroke="white" stroke-miterlimit="10" stroke-linecap="round" stroke-linejoin="round"/>
<path d="M2.84007 31.5372C1.9775 29.1064 1.42859 26.5186 1.42859 23.7741C1.42859 11.306 11.5442 1.19043 24.0123 1.19043C36.4803 1.19043 46.5959 11.306 46.5959 23.7741C46.5959 34.4386 39.2249 43.378 29.2661 45.7305" stroke="white" stroke-miterlimit="10" stroke-linecap="round" stroke-linejoin="round"/>
<path d="M43.3212 25.4996H40.6361L37.4995 16.2466L32.7945 34.6742L29.6579 25.4996H26.2076" stroke="white" stroke-miterlimit="10" stroke-linecap="round" stroke-linejoin="round"/>
</svg>