<svg width="17" height="23" viewBox="0 0 17 23" fill="none" xmlns="http://www.w3.org/2000/svg">
<path d="M11.8494 1.06738H14.6177C15.68 1.06738 16.5491 1.92457 16.5491 2.97224V20.2747C16.5491 21.3224 15.68 22.1796 14.6177 22.1796H2.61105C1.5488 22.1796 0.679688 21.3224 0.679688 20.2747V2.97224C0.679688 1.92457 1.5488 1.06738 2.61105 1.06738H5.37935H11.8494Z" stroke="white" stroke-width="0.7" stroke-miterlimit="10" stroke-linecap="round" stroke-linejoin="round"/>
<path d="M13.4085 4.73901H14.4486V18.9668H2.97461V4.73901H4.12201" stroke="white" stroke-width="0.7" stroke-miterlimit="10" stroke-linecap="round" stroke-linejoin="round"/>
<path d="M11.7533 2.41553H10.0472V2.44728C10.0472 2.66951 9.8541 2.85999 9.62878 2.85999H7.79398C7.56865 2.85999 7.37552 2.66951 7.37552 2.44728V2.41553H5.66948C5.47634 2.41553 5.2832 2.57427 5.2832 2.7965V3.81242C5.2832 4.00291 5.44415 4.19339 5.66948 4.19339H11.7533C11.9464 4.19339 12.1396 4.03466 12.1396 3.81242V2.76475C12.1074 2.57427 11.9464 2.41553 11.7533 2.41553Z" stroke="white" stroke-width="0.7" stroke-miterlimit="10" stroke-linecap="round" stroke-linejoin="round"/>
<path d="M5.28382 3.27246H4.54346C4.31814 3.27246 4.125 3.46295 4.125 3.68518V5.33606C4.125 5.55829 4.31814 5.74878 4.54346 5.74878H7.24738C7.24738 5.52654 7.89116 5.3678 8.66371 5.3678C9.43626 5.3678 10.08 5.52654 10.08 5.74878H12.8483C13.0737 5.74878 13.2668 5.55829 13.2668 5.33606V3.71693C13.2668 3.49469 13.0737 3.30421 12.8483 3.30421H12.1547" stroke="white" stroke-width="0.7" stroke-miterlimit="10" stroke-linecap="round" stroke-linejoin="round"/>
<path d="M6.18359 3.27246H6.73081" stroke="white" stroke-width="0.7" stroke-miterlimit="10" stroke-linecap="round" stroke-linejoin="round"/>
<path d="M10.6914 3.27246H11.2386" stroke="white" stroke-width="0.7" stroke-miterlimit="10" stroke-linecap="round" stroke-linejoin="round"/>
<path d="M11.0762 9.8471V10.0693C11.0762 11.4345 9.94961 12.5456 8.56546 12.5456C7.18132 12.5456 6.05469 11.4345 6.05469 10.0693C6.05469 8.70418 7.18132 7.59302 8.56546 7.59302C8.91955 7.59302 9.27363 7.65651 9.59553 7.81525" stroke="white" stroke-width="0.7" stroke-miterlimit="10" stroke-linecap="round" stroke-linejoin="round"/>
<path d="M11.3348 7.84692L8.56653 10.5772L7.82617 9.84703" stroke="white" stroke-width="0.7" stroke-miterlimit="10" stroke-linecap="round" stroke-linejoin="round"/>
<path d="M5.02539 14.4504H12.1071" stroke="white" stroke-width="0.7" stroke-miterlimit="10" stroke-linecap="round" stroke-linejoin="round"/>
<path d="M5.02547 15.7204H12.1071" stroke="white" stroke-width="0.7" stroke-miterlimit="10" stroke-linecap="round" stroke-linejoin="round"/>
<path d="M5.02547 16.9905H8.56631" stroke="white" stroke-width="0.7" stroke-miterlimit="10" stroke-linecap="round" stroke-linejoin="round"/>
</svg>
