<svg width="66" height="66" viewBox="0 0 66 66" fill="none" xmlns="http://www.w3.org/2000/svg">
<path d="M49.8812 50.4029L40.4267 46.3538C39.641 46.0173 39.1334 45.2476 39.1334 44.3929V40.5972C42.5717 38.618 44.9716 35.029 45.2959 30.8667H45.9166C46.9179 30.8667 47.8775 30.4407 48.5496 29.6981C49.2212 28.9557 49.5488 27.9555 49.4485 26.9538C49.3671 26.1426 48.9891 25.4117 48.425 24.8547C48.43 24.8148 48.4333 24.7745 48.4333 24.7334V21.6333C48.4333 16.5829 45.9948 12.0913 42.2333 9.27403C42.2323 4.18352 38.0905 0 32.9999 0C27.9118 0 23.7722 4.17914 23.7667 9.26604C23.3131 9.60545 22.8755 9.97051 22.4571 10.3621C19.6026 13.0332 17.8795 16.6448 17.6052 20.5319C17.5675 21.0646 17.9688 21.5268 18.5014 21.5645C19.0318 21.6012 19.4963 21.2008 19.534 20.6682C19.7737 17.2693 21.2812 14.1107 23.7782 11.7742C26.287 9.4264 29.562 8.1336 32.9999 8.1336C40.4437 8.1336 46.4997 14.1895 46.4997 21.6334V23.8385C46.2626 23.7918 46.0183 23.7667 45.769 23.7667H44.3666C43.7601 23.7667 43.2668 23.2734 43.2668 22.6669V21.9848C43.2668 19.8951 42.0847 18.0763 40.353 17.1615C41.2431 16.6338 41.7548 16.2729 41.8284 16.2201C42.2627 15.91 42.3631 15.3068 42.0533 14.8724C41.7435 14.438 41.1398 14.337 40.7051 14.6463C40.6393 14.6933 34.009 19.3501 24.6017 20.5575C23.5364 20.6942 22.733 21.5991 22.733 22.6667C22.733 23.2733 22.2397 23.7666 21.6332 23.7666H20.0834C19.082 23.7666 18.1225 24.1926 17.4503 24.9352C16.7787 25.6775 16.4511 26.6777 16.5513 27.6793C16.7303 29.4667 18.3464 30.8669 20.2308 30.8669H20.7037C20.9294 33.7968 22.1787 36.5208 24.2789 38.621C25.0617 39.4038 25.9317 40.0679 26.8663 40.6055V44.3929C26.8663 45.2476 26.3587 46.0173 25.573 46.3538L16.1186 50.4029C13.8595 51.3704 12.3997 53.5835 12.3997 56.041V65.0332C12.3997 65.5673 12.8324 66 13.3665 66C13.9005 66 14.3333 65.5673 14.3333 65.0332V56.041C14.3333 54.3581 15.3328 52.8427 16.8798 52.1803L22.7329 49.6736V55.7998H19.5666C17.8939 55.7998 16.5332 57.1606 16.5332 58.8332V62.9664C16.5332 64.6391 17.894 65.9999 19.5666 65.9999C20.1006 65.9999 20.5334 65.5671 20.5334 65.0331C20.5334 64.499 20.1006 64.0663 19.5666 64.0663C18.9601 64.0663 18.4668 63.573 18.4668 62.9664V58.8332C18.4668 58.2267 18.9601 57.7334 19.5666 57.7334H27.8332C28.4397 57.7334 28.933 58.2267 28.933 58.8332V62.9664C28.933 63.573 28.4397 64.0663 27.8332 64.0663C27.2992 64.0663 26.8664 64.499 26.8664 65.0331C26.8664 65.5671 27.2992 65.9999 27.8332 65.9999C29.5059 65.9999 30.8666 64.639 30.8666 62.9664V58.8332C30.8666 57.1605 29.5058 55.7998 27.8332 55.7998H24.6668V50.3064L31.3173 54.7402C31.8284 55.0809 32.4142 55.2512 33 55.2512C33.5858 55.2512 34.1717 55.0807 34.6828 54.74L41.3333 50.3063V57.9834C39.5562 58.4185 38.2332 60.0238 38.2332 61.9331C38.2332 64.1756 40.0575 66 42.3001 66C44.5426 66 46.3668 64.1757 46.3668 61.9331C46.3668 60.0239 45.044 58.4186 43.2669 57.9834V49.6735L49.1202 52.1802C50.667 52.8427 51.6666 54.3581 51.6666 56.0408V65.0332C51.6666 65.5673 52.0993 66 52.6334 66C53.1674 66 53.6002 65.5673 53.6002 65.0332V56.041C53.6 53.5835 52.1402 51.3704 49.8812 50.4029ZM25.8112 7.97337C26.4102 4.54691 29.4046 1.93359 32.9999 1.93359C36.5978 1.93359 39.594 4.55065 40.1899 7.98071C38.0414 6.84466 35.5947 6.2 32.9999 6.2C30.4643 6.2 28.0067 6.81605 25.8112 7.97337ZM22.6003 29.8999C22.6003 29.6435 22.4984 29.3977 22.3171 29.2162C22.1358 29.035 21.8899 28.9331 21.6333 28.9331L20.2307 28.9333C19.3276 28.9333 18.5566 28.2979 18.4754 27.4867C18.4287 27.0208 18.5739 26.5754 18.884 26.2326C19.1903 25.8942 19.6274 25.7 20.0834 25.7H21.6332C23.3059 25.7 24.6666 24.3392 24.6666 22.6625C24.6666 22.5675 24.7428 22.4886 24.8477 22.4753C30.3838 21.7647 34.9445 19.9596 37.9419 18.469C39.8233 18.5359 41.3331 20.0873 41.3331 21.9846V22.6666C41.3331 24.3393 42.6939 25.7 44.3665 25.7H45.7688C46.672 25.7 47.4431 26.3354 47.5243 27.1465C47.571 27.6124 47.4258 28.0577 47.1157 28.4006C46.8095 28.739 46.3724 28.9331 45.9163 28.9331L44.3663 28.9333C43.8324 28.9333 43.3997 29.3661 43.3997 29.9001C43.3997 35.6345 38.7344 40.2998 32.9999 40.2998C30.222 40.2998 27.6103 39.218 25.6461 37.2538C23.682 35.2895 22.6003 32.6779 22.6003 29.8999ZM33.61 53.1312C33.2395 53.3783 32.7604 53.3784 32.3897 53.1313L25.4548 48.5079L26.3344 48.1313C27.8322 47.4897 28.8 46.0224 28.8 44.3929V41.5028C30.1289 41.9828 31.5451 42.2334 33 42.2334C34.4741 42.2334 35.8883 41.9726 37.1998 41.4962V44.3929C37.1998 46.0224 38.1676 47.4897 39.6654 48.1313L40.545 48.5079L33.61 53.1312ZM44.433 61.9331C44.433 63.1094 43.4761 64.0664 42.2998 64.0664C41.1236 64.0664 40.1666 63.1094 40.1666 61.9331C40.1666 60.7569 41.1236 59.8 42.2998 59.8C43.4761 59.8 44.433 60.7569 44.433 61.9331Z" fill="white"/>
<path d="M63.9257 47.1116L59.8457 45.7516C59.8184 45.7425 59.8001 45.717 59.8001 45.6883V43.0298C61.6711 41.7353 62.9 39.5756 62.9 37.1332V34.0333C62.9 31.2211 60.612 28.9331 57.7999 28.9331H53.6667C50.8546 28.9331 48.5667 31.2211 48.5667 34.0333V37.1332C48.5667 39.5756 49.7956 41.7354 51.6667 43.0299V45.6883C51.6667 45.7171 51.6483 45.7425 51.6212 45.7515L50.2611 46.2049C49.7545 46.3737 49.4807 46.9213 49.6496 47.4277C49.7847 47.833 50.1619 48.0891 50.5666 48.0891C50.6679 48.0891 50.7711 48.073 50.8724 48.0392L51.7432 47.7489L54.5333 49.8414C54.8867 50.1065 55.31 50.2389 55.7336 50.2389C56.1569 50.2389 56.5802 50.1065 56.9336 49.8414L58.9 48.3668V52.8585C57.7002 53.2631 56.8334 54.3984 56.8334 55.7331C56.8334 57.4058 58.1943 58.7665 59.8668 58.7665C61.5394 58.7665 62.9003 57.4057 62.9003 55.7331C62.9003 54.3985 62.0335 53.2633 60.8336 52.8585V48.119L63.3147 48.9459C63.7644 49.0958 64.0667 49.5151 64.0667 49.9893V57.7997C64.0667 58.3338 64.4995 58.7665 65.0335 58.7665C65.5676 58.7665 66.0003 58.3338 66.0003 57.7997V49.9893C65.9999 48.6814 65.1663 47.525 63.9257 47.1116ZM50.5 37.1331V34.0332C50.5 32.287 51.9205 30.8666 53.6664 30.8666H57.7997C59.5457 30.8666 60.9661 32.2871 60.9661 34.0332V37.1331C60.9661 40.0187 58.6185 42.3663 55.7329 42.3663C52.8474 42.3663 50.5 40.0187 50.5 37.1331ZM55.7729 48.2947C55.7494 48.3121 55.7166 48.3122 55.6932 48.2946L53.3944 46.5706C53.5264 46.3021 53.5999 46.002 53.5999 45.6882V43.9756C54.274 44.1862 54.9904 44.2998 55.7331 44.2998C56.4757 44.2998 57.1922 44.1861 57.8663 43.9756V45.6882C57.8663 46.002 57.9399 46.3021 58.0718 46.5706L55.7729 48.2947ZM59.8664 56.8329C59.2599 56.8329 58.7666 56.3396 58.7666 55.7331C58.7666 55.1266 59.2599 54.6333 59.8664 54.6333C60.4729 54.6333 60.9663 55.1266 60.9663 55.7331C60.9663 56.3396 60.4729 56.8329 59.8664 56.8329Z" fill="white"/>
<path d="M9.06662 49.8414C9.41995 50.1066 9.84328 50.239 10.2669 50.239C10.6902 50.239 11.1135 50.1066 11.467 49.8416L14.2572 47.749L15.1279 48.0392C15.2292 48.0731 15.3324 48.0891 15.4337 48.0891C15.8385 48.0891 16.2156 47.833 16.3507 47.4277C16.5196 46.9212 16.2458 46.3736 15.7392 46.2049L14.3794 45.7516C14.352 45.7425 14.3337 45.717 14.3337 45.6883V43.0299C16.2048 41.7354 17.4338 39.5756 17.4338 37.1332V33C17.4338 30.7575 15.6095 28.9331 13.3669 28.9331H7.1668C4.92435 28.9331 3.10007 30.7574 3.10007 33V37.1332C3.10007 39.5756 4.32893 41.7353 6.2 43.0298V45.6883C6.2 45.7171 6.18157 45.7425 6.15437 45.7515L2.07436 47.1116C0.833637 47.5251 0 48.6815 0 49.9894V57.7999C0 58.3339 0.432738 58.7667 0.966797 58.7667C1.50086 58.7667 1.93359 58.3339 1.93359 57.7999V49.9894C1.93359 49.5152 2.23588 49.096 2.68576 48.9461L6.2 47.7746V52.6997H5.10018C3.99725 52.6997 3.10007 53.597 3.10007 54.6999V56.7665C3.10007 57.8695 3.99725 58.7667 5.10018 58.7667C5.63423 58.7667 6.06697 58.3339 6.06697 57.7999C6.06697 57.2658 5.63423 56.8331 5.10018 56.8331C5.06357 56.8331 5.03366 56.8033 5.03366 56.7665V54.6999C5.03366 54.6632 5.06344 54.6333 5.10018 54.6333H9.23343C9.27016 54.6333 9.30007 54.663 9.30007 54.6999V56.7665C9.30007 56.8032 9.27029 56.8331 9.23343 56.8331C8.69937 56.8331 8.26663 57.2658 8.26663 57.7999C8.26663 58.3339 8.69937 58.7667 9.23343 58.7667C10.3363 58.7667 11.2337 57.8695 11.2337 56.7665V54.6999C11.2337 53.597 10.3363 52.6997 9.23343 52.6997H8.1336V49.1417L9.06662 49.8414ZM7.1668 30.8667H13.3668C14.5431 30.8667 15.5001 31.8237 15.5001 33V35.0928C12.3991 34.8342 10.2243 33.3942 9.38399 32.7407C8.67591 32.1902 7.67907 32.1824 6.96029 32.7214L5.03379 34.1664V33C5.03366 31.8237 5.99053 30.8667 7.1668 30.8667ZM5.03366 37.1332V36.5833L8.12032 34.2681C8.13514 34.2569 8.16505 34.2424 8.19689 34.2671C9.43246 35.2276 11.9495 36.7848 15.4999 37.032V37.1331C15.4999 40.0187 13.1523 42.3663 10.2667 42.3663C7.38117 42.3663 5.03366 40.0188 5.03366 37.1332ZM10.2669 44.3C11.0094 44.3 11.726 44.1865 12.4 43.9758V45.6885C12.4 46.0022 12.4735 46.3023 12.6055 46.5708L10.3067 48.2947C10.2832 48.3124 10.2502 48.3124 10.2269 48.2947L7.92812 46.5707C8.06012 46.3022 8.1336 46.0021 8.1336 45.6883V43.9757C8.80765 44.1865 9.52424 44.3 10.2669 44.3Z" fill="white"/>
</svg>
