<svg width="19" height="23" viewBox="0 0 19 23" fill="none" xmlns="http://www.w3.org/2000/svg">
<path d="M2.84375 8.85019V2.6089C2.84375 1.70832 3.57528 0.946289 4.51582 0.946289H13.9212V3.6134C13.9212 4.47934 14.6179 5.20673 15.5236 5.20673H18.2059V20.2395C18.2059 21.1401 17.4744 21.9021 16.5338 21.9021H4.51582C3.61012 21.9021 2.84375 21.1747 2.84375 20.2395C2.84375 20.2395 2.84375 16.5245 2.84375 13.8597" stroke="white" stroke-width="0.7" stroke-miterlimit="10" stroke-linecap="round" stroke-linejoin="round"/>
<path d="M13.957 0.946289L18.2417 5.20673" stroke="white" stroke-width="0.7" stroke-miterlimit="10" stroke-linecap="round" stroke-linejoin="round"/>
<path d="M10.4375 17.3301C13.4772 17.3301 15.9414 14.8798 15.9414 11.8573C15.9414 8.83479 13.4772 6.38455 10.4375 6.38455C7.39778 6.38455 4.93359 8.83479 4.93359 11.8573C4.93359 14.8798 7.39778 17.3301 10.4375 17.3301Z" fill="#615DA6" stroke="white" stroke-width="0.7" stroke-miterlimit="10" stroke-linecap="round" stroke-linejoin="round"/>
<path d="M7.58206 14.6979C9.14963 16.2566 11.6926 16.2566 13.2601 14.6979C14.8277 13.1392 14.8277 10.6106 13.2601 9.05192C11.6926 7.49322 9.14963 7.49322 7.58206 9.05192" fill="#615DA6"/>
<path d="M7.58206 14.6979C9.14963 16.2566 11.6926 16.2566 13.2601 14.6979C14.8277 13.1392 14.8277 10.6106 13.2601 9.05192C11.6926 7.49322 9.14963 7.49322 7.58206 9.05192" stroke="white" stroke-width="0.7" stroke-miterlimit="10" stroke-linecap="round" stroke-linejoin="round"/>
<path d="M5.02851 16.7507L5.89062 17.6079L7.14684 16.3588L6.28473 15.5016L5.02851 16.7507Z" fill="#615DA6" stroke="white" stroke-width="0.7" stroke-miterlimit="10" stroke-linecap="round" stroke-linejoin="round"/>
<path d="M1.27689 21.2439L1.34656 21.3132C1.6949 21.6596 2.2871 21.6596 2.63545 21.3132L6.15377 17.8148L4.79521 16.4639L1.27689 19.9969C0.928538 20.3433 0.928538 20.8975 1.27689 21.2439Z" fill="#615DA6" stroke="white" stroke-width="0.7" stroke-miterlimit="10" stroke-linecap="round" stroke-linejoin="round"/>
<path d="M12.4243 12.4113C12.9822 12.4113 13.4345 11.9616 13.4345 11.4068C13.4345 10.8521 12.9822 10.4023 12.4243 10.4023C11.8663 10.4023 11.4141 10.8521 11.4141 11.4068C11.4141 11.9616 11.8663 12.4113 12.4243 12.4113Z" fill="#615DA6" stroke="white" stroke-width="0.7" stroke-miterlimit="10" stroke-linecap="round" stroke-linejoin="round"/>
<path d="M7.61568 12.4113C8.1736 12.4113 8.62589 11.9616 8.62589 11.4068C8.62589 10.8521 8.1736 10.4023 7.61568 10.4023C7.05776 10.4023 6.60547 10.8521 6.60547 11.4068C6.60547 11.9616 7.05776 12.4113 7.61568 12.4113Z" fill="#615DA6" stroke="white" stroke-width="0.7" stroke-miterlimit="10" stroke-linecap="round" stroke-linejoin="round"/>
<path d="M5.21264 14.0738C5.57818 14.0738 5.87451 13.7792 5.87451 13.4157C5.87451 13.0522 5.57818 12.7576 5.21264 12.7576C4.84711 12.7576 4.55078 13.0522 4.55078 13.4157C4.55078 13.7792 4.84711 14.0738 5.21264 14.0738Z" fill="#615DA6" stroke="white" stroke-width="0.7" stroke-miterlimit="10" stroke-linecap="round" stroke-linejoin="round"/>
<path d="M10.0212 14.0738C10.3868 14.0738 10.6831 13.7792 10.6831 13.4157C10.6831 13.0522 10.3868 12.7576 10.0212 12.7576C9.6557 12.7576 9.35938 13.0522 9.35938 13.4157C9.35938 13.7792 9.6557 14.0738 10.0212 14.0738Z" fill="#615DA6" stroke="white" stroke-width="0.7" stroke-miterlimit="10" stroke-linecap="round" stroke-linejoin="round"/>
<path d="M2.80904 12.4113C3.36696 12.4113 3.81925 11.9616 3.81925 11.4068C3.81925 10.8521 3.36696 10.4023 2.80904 10.4023C2.25111 10.4023 1.79883 10.8521 1.79883 11.4068C1.79883 11.9616 2.25111 12.4113 2.80904 12.4113Z" fill="#615DA6" stroke="white" stroke-width="0.7" stroke-miterlimit="10" stroke-linecap="round" stroke-linejoin="round"/>
<path d="M6.84909 12.0996L5.73438 13.0002" stroke="white" stroke-width="0.7" stroke-miterlimit="10" stroke-linecap="round" stroke-linejoin="round"/>
<path d="M3.57617 12.0996L4.69089 13.0002" stroke="white" stroke-width="0.7" stroke-miterlimit="10" stroke-linecap="round" stroke-linejoin="round"/>
<path d="M11.6577 12.0996L10.543 13.0002" stroke="white" stroke-width="0.7" stroke-miterlimit="10" stroke-linecap="round" stroke-linejoin="round"/>
<path d="M8.38281 12.0996L9.49753 13.0002" stroke="white" stroke-width="0.7" stroke-miterlimit="10" stroke-linecap="round" stroke-linejoin="round"/>
<path d="M12.2837 3.05957H4.93359V4.27189H12.2837V3.05957Z" stroke="white" stroke-width="0.7" stroke-miterlimit="10" stroke-linecap="round" stroke-linejoin="round"/>
<path d="M18.2416 19.5125C18.2416 19.5125 11.1908 19.5125 6.38867 19.5125" stroke="white" stroke-width="0.7" stroke-miterlimit="10" stroke-linecap="round" stroke-linejoin="round"/>
</svg>
