<svg width="22" height="25" viewBox="0 0 22 25" fill="none" xmlns="http://www.w3.org/2000/svg">
<path d="M4.61163 2.52094L2.50391 4.62866L9.81508 11.9398L11.9228 9.83211L4.61163 2.52094Z" stroke="white" stroke-width="0.7" stroke-miterlimit="10" stroke-linecap="round" stroke-linejoin="round"/>
<path d="M2.84796 0.720947L0.740234 2.82867L1.6953 3.78373L3.80302 1.67601L2.84796 0.720947Z" stroke="white" stroke-width="0.7" stroke-miterlimit="10" stroke-linecap="round" stroke-linejoin="round"/>
<path d="M11.5036 10.2493L12.4817 11.1808L11.1776 12.4849L10.2461 11.5068" stroke="white" stroke-width="0.7" stroke-miterlimit="10" stroke-linecap="round" stroke-linejoin="round"/>
<path d="M2.28125 3.16992L3.1196 4.05485" stroke="white" stroke-width="0.7" stroke-miterlimit="10" stroke-linecap="round" stroke-linejoin="round"/>
<path d="M3.21289 2.28516L4.05124 3.12351" stroke="white" stroke-width="0.7" stroke-miterlimit="10" stroke-linecap="round" stroke-linejoin="round"/>
<path d="M7.35759 9.45738C8.51511 9.45738 9.45347 8.51902 9.45347 7.3615C9.45347 6.20398 8.51511 5.26562 7.35759 5.26562C6.20007 5.26562 5.26172 6.20398 5.26172 7.3615C5.26172 8.51902 6.20007 9.45738 7.35759 9.45738Z" fill="#4461B7" stroke="white" stroke-width="0.7" stroke-miterlimit="10" stroke-linecap="round" stroke-linejoin="round"/>
<path d="M7.35863 8.38597C7.92453 8.38597 8.38329 7.92722 8.38329 7.36132C8.38329 6.79542 7.92453 6.33667 7.35863 6.33667C6.79274 6.33667 6.33398 6.79542 6.33398 7.36132C6.33398 7.92722 6.79274 8.38597 7.35863 8.38597Z" fill="#4461B7" stroke="white" stroke-width="0.7" stroke-miterlimit="10" stroke-linecap="round" stroke-linejoin="round"/>
<path d="M15.1821 15.8384C14.2506 18.6794 11.5958 20.7287 8.42871 20.7287C6.51914 20.7287 4.74929 19.9835 3.39861 18.6329C2.04793 17.2822 1.30273 15.5123 1.30273 13.6028C1.30273 10.8548 2.88629 8.43293 5.16846 7.26855" stroke="white" stroke-width="0.7" stroke-miterlimit="10" stroke-linecap="round" stroke-linejoin="round"/>
<path d="M6.00736 9.03824C5.54161 9.27111 5.12244 9.59714 4.74984 9.96974C2.70053 12.019 2.70053 15.2793 4.74984 17.3286C6.79914 19.3779 10.0594 19.3779 12.1087 17.3286C12.5279 16.9094 12.9005 16.3971 13.1333 15.8382" stroke="white" stroke-width="0.7" stroke-miterlimit="10" stroke-linecap="round" stroke-linejoin="round"/>
<path d="M16.8133 14.4875H11.7832V15.7916H16.8133V14.4875Z" stroke="white" stroke-width="0.7" stroke-miterlimit="10" stroke-linecap="round" stroke-linejoin="round"/>
<path d="M12.9934 22.4521H3.77156V23.9425H12.9934V22.4521Z" stroke="white" stroke-width="0.7" stroke-miterlimit="10" stroke-linecap="round" stroke-linejoin="round"/>
<path d="M13.4141 13.6492H15.1839" stroke="white" stroke-width="0.7" stroke-miterlimit="10" stroke-linecap="round" stroke-linejoin="round"/>
<path d="M10.4336 6.01106C11.5514 5.26585 12.8555 4.84668 14.2993 4.84668C18.165 4.84668 21.2856 7.96721 21.2856 11.8329C21.2856 15.4192 18.5842 18.4 15.0911 18.7726" stroke="white" stroke-width="0.7" stroke-miterlimit="10" stroke-linecap="round" stroke-linejoin="round"/>
<path d="M10.0605 17.3756C8.3838 16.118 7.31258 14.0687 7.31258 11.8331C7.31258 11.5537 7.31258 11.2742 7.35915 10.9948" stroke="white" stroke-width="0.7" stroke-miterlimit="10" stroke-linecap="round" stroke-linejoin="round"/>
<path d="M6.28593 20.4026C6.28593 21.5204 5.401 22.4053 4.2832 22.4053" stroke="white" stroke-width="0.7" stroke-miterlimit="10" stroke-linecap="round" stroke-linejoin="round"/>
<path d="M10.4785 20.4026C10.4785 21.5204 11.3634 22.4053 12.4812 22.4053" stroke="white" stroke-width="0.7" stroke-miterlimit="10" stroke-linecap="round" stroke-linejoin="round"/>
<path d="M16.0212 10.9013C16.7157 10.9013 17.2787 10.3383 17.2787 9.64376C17.2787 8.94924 16.7157 8.38623 16.0212 8.38623C15.3267 8.38623 14.7637 8.94924 14.7637 9.64376C14.7637 10.3383 15.3267 10.9013 16.0212 10.9013Z" stroke="white" stroke-width="0.7" stroke-miterlimit="10" stroke-linecap="round" stroke-linejoin="round"/>
<path d="M16.0215 8.38648V7.17553" stroke="white" stroke-width="0.7" stroke-miterlimit="10" stroke-linecap="round" stroke-linejoin="round"/>
<path d="M16.0215 12.0659V10.855" stroke="white" stroke-width="0.7" stroke-miterlimit="10" stroke-linecap="round" stroke-linejoin="round"/>
<path d="M17.2324 9.64402H18.4433" stroke="white" stroke-width="0.7" stroke-miterlimit="10" stroke-linecap="round" stroke-linejoin="round"/>
<path d="M13.5527 9.64402H14.7636" stroke="white" stroke-width="0.7" stroke-miterlimit="10" stroke-linecap="round" stroke-linejoin="round"/>
<path d="M16.8594 8.75901L17.7443 7.92065" stroke="white" stroke-width="0.7" stroke-miterlimit="10" stroke-linecap="round" stroke-linejoin="round"/>
<path d="M14.2519 11.3671L15.1368 10.5288" stroke="white" stroke-width="0.7" stroke-miterlimit="10" stroke-linecap="round" stroke-linejoin="round"/>
<path d="M16.8594 10.5288L17.7443 11.3672" stroke="white" stroke-width="0.7" stroke-miterlimit="10" stroke-linecap="round" stroke-linejoin="round"/>
<path d="M14.252 7.92065L15.1369 8.75901" stroke="white" stroke-width="0.7" stroke-miterlimit="10" stroke-linecap="round" stroke-linejoin="round"/>
</svg>
