<svg width="51" height="62" viewBox="0 0 51 62" fill="none" xmlns="http://www.w3.org/2000/svg">
<path d="M41.702 34.7744C38.2411 40.507 31.9089 44.3667 24.6829 44.3477C13.7299 44.3477 4.84961 35.5122 4.84961 24.6145C4.84961 23.3279 4.98272 22.0603 5.21091 20.8305" stroke="white" stroke-width="1.5" stroke-miterlimit="10" stroke-linecap="round" stroke-linejoin="round"/>
<path d="M43.5079 30.8589C43.3368 31.3887 43.1276 31.8995 42.9185 32.4104" stroke="white" stroke-width="1.5" stroke-miterlimit="10" stroke-linecap="round" stroke-linejoin="round"/>
<path d="M38.0708 10.0284C42.0451 13.6421 44.5361 18.845 44.5361 24.6155C44.5361 25.4102 44.4981 26.1859 44.403 26.9616" stroke="white" stroke-width="1.5" stroke-miterlimit="10" stroke-linecap="round" stroke-linejoin="round"/>
<path d="M7.64551 14.493C11.1064 8.72248 17.4386 4.86285 24.6835 4.86285C27.0605 4.86285 29.3234 5.27909 31.4341 6.03588" stroke="white" stroke-width="1.5" stroke-miterlimit="10" stroke-linecap="round" stroke-linejoin="round"/>
<path d="M24.6826 14.493V43.8942" stroke="white" stroke-width="1.5" stroke-miterlimit="10" stroke-linecap="round" stroke-linejoin="round"/>
<path d="M5.30615 24.6147H27.1932H34.6853" stroke="white" stroke-width="1.5" stroke-miterlimit="10" stroke-linecap="round" stroke-linejoin="round"/>
<path d="M16.8096 34.8129C19.3957 40.7348 23.446 43.8944 23.446 43.8944" stroke="white" stroke-width="1.5" stroke-miterlimit="10" stroke-linecap="round" stroke-linejoin="round"/>
<path d="M23.4279 5.33569C23.4279 5.33569 14.6807 12.1846 14.6807 24.6149C14.6807 26.4123 14.8708 28.0961 15.1751 29.6665" stroke="white" stroke-width="1.5" stroke-miterlimit="10" stroke-linecap="round" stroke-linejoin="round"/>
<path d="M25.9377 5.33569C25.9377 5.33569 34.685 12.1846 34.685 24.6149C34.685 37.0452 25.9377 43.8941 25.9377 43.8941" stroke="white" stroke-width="1.5" stroke-miterlimit="10" stroke-linecap="round" stroke-linejoin="round"/>
<path d="M9.67896 12.1654C9.67896 12.1654 12.7975 18.39 24.6823 18.39C36.5671 18.39 39.6857 12.1654 39.6857 12.1654" stroke="white" stroke-width="1.5" stroke-miterlimit="10" stroke-linecap="round" stroke-linejoin="round"/>
<path d="M18.0647 31.597C19.8902 31.124 22.077 30.8213 24.6821 30.8213C36.5669 30.8213 39.6855 37.0458 39.6855 37.0458" stroke="white" stroke-width="1.5" stroke-miterlimit="10" stroke-linecap="round" stroke-linejoin="round"/>
<path d="M9.67896 37.0453C9.67896 37.0453 10.5347 35.3425 13.0637 33.7154" stroke="white" stroke-width="1.5" stroke-miterlimit="10" stroke-linecap="round" stroke-linejoin="round"/>
<path d="M23.9029 61.0547H38.3168C30.7866 53.5625 18.5785 53.5625 11.0483 61.0547H16.4868H23.9029Z" stroke="white" stroke-width="1.5" stroke-miterlimit="10" stroke-linecap="round" stroke-linejoin="round"/>
<path d="M24.6826 50.1187V55.4162" stroke="white" stroke-width="1.5" stroke-miterlimit="10" stroke-linecap="round" stroke-linejoin="round"/>
<path d="M4.25977 44.8778L6.59869 42.5507" stroke="white" stroke-width="1.5" stroke-miterlimit="10" stroke-linecap="round" stroke-linejoin="round"/>
<path d="M42.6914 6.64097L45.0874 4.25708" stroke="white" stroke-width="1.5" stroke-miterlimit="10" stroke-linecap="round" stroke-linejoin="round"/>
<path d="M30.3116 49.1726C22.0969 51.0268 13.1405 48.7753 6.75122 42.3994" stroke="white" stroke-width="1.5" stroke-miterlimit="10" stroke-linecap="round" stroke-linejoin="round"/>
<path d="M49.8978 21.7578C50.7155 29.1176 48.3005 36.7612 42.6338 42.3993C40.8844 44.1399 38.9258 45.5778 36.8721 46.713" stroke="white" stroke-width="1.5" stroke-miterlimit="10" stroke-linecap="round" stroke-linejoin="round"/>
<path d="M46.7971 12.165C47.3105 13.0731 47.7669 14.0191 48.1662 14.984" stroke="white" stroke-width="1.5" stroke-miterlimit="10" stroke-linecap="round" stroke-linejoin="round"/>
<path d="M42.6143 6.71753C43.3749 7.47432 44.0785 8.26895 44.706 9.0825" stroke="white" stroke-width="1.5" stroke-miterlimit="10" stroke-linecap="round" stroke-linejoin="round"/>
<path d="M46.6267 1.89197C47.102 1.89197 47.4824 2.27037 47.4824 2.74336C47.4824 3.21636 47.102 3.59475 46.6267 3.59475C46.1513 3.59475 45.7709 3.21636 45.7709 2.74336C45.7709 2.27037 46.1513 1.89197 46.6267 1.89197ZM46.6267 0C45.1054 0 43.8694 1.22978 43.8694 2.74336C43.8694 4.25694 45.1054 5.48673 46.6267 5.48673C48.1479 5.48673 49.3839 4.25694 49.3839 2.74336C49.3839 1.22978 48.1479 0 46.6267 0Z" fill="white"/>
<path d="M2.75727 45.5213C3.23266 45.5213 3.61298 45.8997 3.61298 46.3727C3.61298 46.8457 3.23266 47.2241 2.75727 47.2241C2.28188 47.2241 1.90157 46.8457 1.90157 46.3727C1.90157 45.8997 2.28188 45.5213 2.75727 45.5213ZM2.75727 43.6294C1.23602 43.6294 0 44.8591 0 46.3727C0 47.8863 1.23602 49.1161 2.75727 49.1161C4.27852 49.1161 5.51454 47.8863 5.51454 46.3727C5.51454 44.8591 4.27852 43.6294 2.75727 43.6294Z" fill="white"/>
<path d="M15.5366 31.5393C16.012 31.5393 16.3923 31.9177 16.3923 32.3907C16.3923 32.8637 16.012 33.2421 15.5366 33.2421C15.0612 33.2421 14.6809 32.8637 14.6809 32.3907C14.6809 31.9177 15.0612 31.5393 15.5366 31.5393ZM15.5366 29.6474C14.0153 29.6474 12.7793 30.8772 12.7793 32.3907C12.7793 33.9043 14.0153 35.1341 15.5366 35.1341C17.0578 35.1341 18.2938 33.9043 18.2938 32.3907C18.2938 30.8772 17.0578 29.6474 15.5366 29.6474Z" fill="white"/>
<path d="M24.6826 10.028V4.86288" stroke="white" stroke-width="1.5" stroke-miterlimit="10" stroke-linecap="round" stroke-linejoin="round"/>
<path d="M24.6813 11.3146C25.1567 11.3146 25.5371 11.693 25.5371 12.166C25.5371 12.639 25.1567 13.0174 24.6813 13.0174C24.206 13.0174 23.8256 12.639 23.8256 12.166C23.8256 11.693 24.206 11.3146 24.6813 11.3146ZM24.6813 9.42264C23.1601 9.42264 21.9241 10.6524 21.9241 12.166C21.9241 13.6796 23.1601 14.9094 24.6813 14.9094C26.2026 14.9094 27.4386 13.6796 27.4386 12.166C27.4386 10.6524 26.2026 9.42264 24.6813 9.42264Z" fill="white"/>
<path d="M34.6851 24.6143H44.4971" stroke="white" stroke-width="1.5" stroke-miterlimit="10" stroke-linecap="round" stroke-linejoin="round"/>
<path d="M42.6148 6.77319C52.5219 16.6304 52.5219 32.5986 42.6148 42.4558C32.7076 52.313 16.6584 52.313 6.75122 42.4558" stroke="white" stroke-width="1.5" stroke-miterlimit="10" stroke-linecap="round" stroke-linejoin="round"/>
<path d="M24.6829 44.3479C35.6366 44.3479 44.5163 35.513 44.5163 24.6146C44.5163 13.7162 35.6366 4.88129 24.6829 4.88129C13.7293 4.88129 4.84961 13.7162 4.84961 24.6146C4.84961 35.513 13.7293 44.3479 24.6829 44.3479Z" stroke="white" stroke-width="1.5" stroke-miterlimit="10"/>
</svg>
