<svg width="41" height="57" viewBox="0 0 41 57" fill="none" xmlns="http://www.w3.org/2000/svg">
<path d="M33.6786 6.56549C33.6786 3.87962 31.6286 1.49219 28.7001 1.49219H6.44293C3.80721 1.49219 1.46436 3.58119 1.46436 6.56549V44.466C1.46436 47.1519 3.51436 49.5393 6.44293 49.5393H6.73578" stroke="white" stroke-width="1.5" stroke-miterlimit="10" stroke-linecap="round" stroke-linejoin="round"/>
<path d="M39.5355 12.534V50.4345C39.5355 53.1204 37.4855 55.5078 34.5569 55.5078H12.0069C9.37118 55.5078 7.02832 53.4188 7.02832 50.4345V12.534C7.02832 9.84813 9.07832 7.46069 12.0069 7.46069H34.5569C37.1926 7.46069 39.5355 9.5497 39.5355 12.534Z" stroke="white" stroke-width="1.5" stroke-miterlimit="10" stroke-linecap="round" stroke-linejoin="round"/>
<path d="M15.8142 42.0787H30.7499" stroke="white" stroke-width="1.5" stroke-miterlimit="10" stroke-linecap="round" stroke-linejoin="round"/>
<path d="M15.8142 37.3036H30.7499" stroke="white" stroke-width="1.5" stroke-miterlimit="10" stroke-linecap="round" stroke-linejoin="round"/>
<path d="M15.8142 46.8533H21.9642" stroke="white" stroke-width="1.5" stroke-miterlimit="10" stroke-linecap="round" stroke-linejoin="round"/>
<path d="M30.7501 22.0838V22.9791C30.7501 27.4555 27.2358 31.0367 22.8429 31.0367C18.4501 31.0367 14.9358 27.1571 14.9358 22.9791C14.9358 18.8011 18.4501 14.9215 22.8429 14.9215C24.0144 14.9215 25.1858 14.9215 26.0644 15.5184" stroke="white" stroke-width="1.5" stroke-miterlimit="10" stroke-linecap="round" stroke-linejoin="round"/>
<path d="M31.6286 15.5182L22.8429 24.4711L20.5 22.0837" stroke="white" stroke-width="1.5" stroke-miterlimit="10" stroke-linecap="round" stroke-linejoin="round"/>
</svg>
