<svg width="74" height="69" viewBox="0 0 74 69" fill="none" xmlns="http://www.w3.org/2000/svg">
<path d="M61.2118 17.5553C53.8198 17.5553 47.8433 23.4121 47.8433 30.8518V37.8166" stroke="white" stroke-width="1.5" stroke-miterlimit="10" stroke-linecap="round" stroke-linejoin="round"/>
<path d="M34.4746 68.2085C41.8666 68.2085 47.8432 62.3517 47.8432 54.912V47.9472" stroke="white" stroke-width="1.5" stroke-miterlimit="10" stroke-linecap="round" stroke-linejoin="round"/>
<path d="M22.679 56.3367C22.679 48.897 28.4982 42.8819 35.8902 42.8819L59.7963 42.7236C67.0311 42.7236 73.0076 36.7086 73.0076 29.2689" stroke="white" stroke-width="1.5" stroke-miterlimit="10" stroke-linecap="round" stroke-linejoin="round"/>
<path d="M50.8315 22.4623L68.132 39.8744" stroke="white" stroke-width="1.5" stroke-miterlimit="10" stroke-linecap="round" stroke-linejoin="round"/>
<path d="M55.7073 19.2965L71.2777 34.9674" stroke="white" stroke-width="1.5" stroke-miterlimit="10" stroke-linecap="round" stroke-linejoin="round"/>
<path d="M48.4724 28.4774L62.1555 42.0905" stroke="white" stroke-width="1.5" stroke-miterlimit="10" stroke-linecap="round" stroke-linejoin="round"/>
<path d="M44.6977 63.4598L27.3972 46.0477" stroke="white" stroke-width="1.5" stroke-miterlimit="10" stroke-linecap="round" stroke-linejoin="round"/>
<path d="M39.8221 66.6256L24.2517 50.9548" stroke="white" stroke-width="1.5" stroke-miterlimit="10" stroke-linecap="round" stroke-linejoin="round"/>
<path d="M46.8996 57.4447L33.3738 43.8317" stroke="white" stroke-width="1.5" stroke-miterlimit="10" stroke-linecap="round" stroke-linejoin="round"/>
<path d="M22.363 30.5401C28.2109 30.5401 32.9515 25.7688 32.9515 19.8832C32.9515 13.9976 28.2109 9.22638 22.363 9.22638C16.5151 9.22638 11.7744 13.9976 11.7744 19.8832C11.7744 25.7688 16.5151 30.5401 22.363 30.5401Z" stroke="white" stroke-width="1.5" stroke-miterlimit="10" stroke-linecap="round" stroke-linejoin="round"/>
<path d="M22.363 11.2829V5.67407" stroke="white" stroke-width="1.5" stroke-miterlimit="10" stroke-linecap="round" stroke-linejoin="round"/>
<path d="M22.3632 5.86102C23.6969 5.86102 24.7781 4.77284 24.7781 3.43051C24.7781 2.08818 23.6969 1 22.3632 1C21.0294 1 19.9482 2.08818 19.9482 3.43051C19.9482 4.77284 21.0294 5.86102 22.3632 5.86102Z" stroke="white" stroke-width="1.5" stroke-miterlimit="10" stroke-linecap="round" stroke-linejoin="round"/>
<path d="M33.1372 19.8832H37.0383" stroke="white" stroke-width="1.5" stroke-miterlimit="10" stroke-linecap="round" stroke-linejoin="round"/>
<path d="M40.7532 23.0616C42.4973 23.0616 43.9112 21.6386 43.9112 19.8832C43.9112 18.1278 42.4973 16.7048 40.7532 16.7048C39.0091 16.7048 37.5952 18.1278 37.5952 19.8832C37.5952 21.6386 39.0091 23.0616 40.7532 23.0616Z" stroke="white" stroke-width="1.5" stroke-miterlimit="10" stroke-linecap="round" stroke-linejoin="round"/>
<path d="M14.3752 19.8832H7.68774" stroke="white" stroke-width="1.5" stroke-miterlimit="10" stroke-linecap="round" stroke-linejoin="round"/>
<path d="M4.15799 23.0616C5.9021 23.0616 7.31598 21.6386 7.31598 19.8832C7.31598 18.1278 5.9021 16.7048 4.15799 16.7048C2.41388 16.7048 1 18.1278 1 19.8832C1 21.6386 2.41388 23.0616 4.15799 23.0616Z" stroke="white" stroke-width="1.5" stroke-miterlimit="10" stroke-linecap="round" stroke-linejoin="round"/>
<path d="M19.3908 25.1182C20.7245 25.1182 21.8057 24.03 21.8057 22.6877C21.8057 21.3454 20.7245 20.2572 19.3908 20.2572C18.057 20.2572 16.9758 21.3454 16.9758 22.6877C16.9758 24.03 18.057 25.1182 19.3908 25.1182Z" stroke="white" stroke-width="1.5" stroke-miterlimit="10" stroke-linecap="round" stroke-linejoin="round"/>
<path d="M25.1493 19.5093C26.483 19.5093 27.5642 18.4211 27.5642 17.0788C27.5642 15.7364 26.483 14.6483 25.1493 14.6483C23.8156 14.6483 22.7344 15.7364 22.7344 17.0788C22.7344 18.4211 23.8156 19.5093 25.1493 19.5093Z" stroke="white" stroke-width="1.5" stroke-miterlimit="10" stroke-linecap="round" stroke-linejoin="round"/>
<path d="M22.5481 28.2966V33.9054" stroke="white" stroke-width="1.5" stroke-miterlimit="10" stroke-linecap="round" stroke-linejoin="round"/>
<path d="M22.5482 38.7665C23.882 38.7665 24.9632 37.6783 24.9632 36.336C24.9632 34.9936 23.882 33.9055 22.5482 33.9055C21.2145 33.9055 20.1333 34.9936 20.1333 36.336C20.1333 37.6783 21.2145 38.7665 22.5482 38.7665Z" stroke="white" stroke-width="1.5" stroke-miterlimit="10" stroke-linecap="round" stroke-linejoin="round"/>
<path d="M29.9792 12.2177L32.3942 9.78723" stroke="white" stroke-width="1.5" stroke-miterlimit="10" stroke-linecap="round" stroke-linejoin="round"/>
<path d="M34.0661 10.5351C35.3998 10.5351 36.481 9.44692 36.481 8.10458C36.481 6.76225 35.3998 5.67407 34.0661 5.67407C32.7323 5.67407 31.6511 6.76225 31.6511 8.10458C31.6511 9.44692 32.7323 10.5351 34.0661 10.5351Z" stroke="white" stroke-width="1.5" stroke-miterlimit="10" stroke-linecap="round" stroke-linejoin="round"/>
<path d="M27.9358 25.4921L32.7657 30.3531" stroke="white" stroke-width="1.5" stroke-miterlimit="10" stroke-linecap="round" stroke-linejoin="round"/>
<path d="M35.366 35.962C37.1101 35.962 38.524 34.539 38.524 32.7836C38.524 31.0283 37.1101 29.6053 35.366 29.6053C33.6219 29.6053 32.208 31.0283 32.208 32.7836C32.208 34.539 33.6219 35.962 35.366 35.962Z" stroke="white" stroke-width="1.5" stroke-miterlimit="10" stroke-linecap="round" stroke-linejoin="round"/>
<path d="M16.7898 14.2744L11.96 9.41339" stroke="white" stroke-width="1.5" stroke-miterlimit="10" stroke-linecap="round" stroke-linejoin="round"/>
<path d="M9.5452 9.97415C11.2893 9.97415 12.7032 8.55115 12.7032 6.79579C12.7032 5.04043 11.2893 3.61743 9.5452 3.61743C7.80109 3.61743 6.38721 5.04043 6.38721 6.79579C6.38721 8.55115 7.80109 9.97415 9.5452 9.97415Z" stroke="white" stroke-width="1.5" stroke-miterlimit="10" stroke-linecap="round" stroke-linejoin="round"/>
<path d="M14.9325 27.5487L12.5176 29.9792" stroke="white" stroke-width="1.5" stroke-miterlimit="10" stroke-linecap="round" stroke-linejoin="round"/>
<path d="M10.8454 33.9055C12.1791 33.9055 13.2603 32.8173 13.2603 31.4749C13.2603 30.1326 12.1791 29.0444 10.8454 29.0444C9.51162 29.0444 8.43042 30.1326 8.43042 31.4749C8.43042 32.8173 9.51162 33.9055 10.8454 33.9055Z" stroke="white" stroke-width="1.5" stroke-miterlimit="10" stroke-linecap="round" stroke-linejoin="round"/>
</svg>
